STARTFONT 2.1
FONT -Adobe-Utopia-Bold-I-Normal--15-140-75-75-P-82-ISO8859-2
SIZE 14 75 75
FONTBOUNDINGBOX 20 15 -2 -3
STARTPROPERTIES 29
FOUNDRY "Adobe"
FAMILY_NAME "Utopia"
WEIGHT_NAME "Bold"
SLANT "I"
SETWIDTH_NAME "Normal"
ADD_STYLE_NAME ""
PIXEL_SIZE 15
POINT_SIZE 140
RESOLUTION_X 75
RESOLUTION_Y 75
SPACING "P"
AVERAGE_WIDTH 82
CHARSET_REGISTRY "ISO8859"
CHARSET_ENCODING "2"
CAP_HEIGHT 10
X_HEIGHT 7
RELATIVE_SETWIDTH 50
RELATIVE_WEIGHT 70
WEIGHT 208
FACE_NAME "Utopia Bold Italic"
COPYRIGHT "Copyright (c) 1989, 1991 Adobe Systems Incorporated.  All rights reserved., Copyright 1996 Cub Soft"
NOTICE "Utopia is a registered trademark of Adobe Systems Incorporated."
DESTINATION 0
FONT_ASCENT 12
FONT_DESCENT 3
DEFAULT_CHAR 32
_ADOBE_PSFONT "Utopia-BoldItalic"
_ADOBE_XFONT "-Adobe-Utopia-Bold-I-Normal--15-140-75-75-P-82-ISO8859-2"
_DEC_DEVICE_FONTNAMES "PS=Utopia-BoldItalic"
ENDPROPERTIES
CHARS 191
STARTCHAR space
ENCODING 32
SWIDTH 210 0
DWIDTH 3 0
BBX 0 0 0 0
BITMAP
ENDCHAR
STARTCHAR exclam
ENCODING 33
SWIDTH 285 0
DWIDTH 4 0
BBX 4 10 0 0
BITMAP
30
70
70
60
60
40
00
00
c0
c0
ENDCHAR
STARTCHAR quotedbl
ENCODING 34
SWIDTH 455 0
DWIDTH 8 0
BBX 5 5 2 5
BITMAP
d8
d8
90
90
90
ENDCHAR
STARTCHAR numbersign
ENCODING 35
SWIDTH 560 0
DWIDTH 8 0
BBX 8 9 0 1
BITMAP
12
12
7f
24
24
24
fe
48
48
ENDCHAR
STARTCHAR dollar
ENCODING 36
SWIDTH 560 0
DWIDTH 8 0
BBX 8 12 0 -1
BITMAP
04
1e
2f
6b
78
38
1c
1e
d6
f4
78
20
ENDCHAR
STARTCHAR percent
ENCODING 37
SWIDTH 896 0
DWIDTH 13 0
BBX 12 10 0 0
BITMAP
3840
4fc0
cc80
c900
7200
04e0
0930
1330
2320
41c0
ENDCHAR
STARTCHAR ampersand
ENCODING 38
SWIDTH 752 0
DWIDTH 12 0
BBX 11 10 0 0
BITMAP
1f00
3980
3100
1a00
3c60
7e60
e740
c380
e3c0
7ce0
ENDCHAR
STARTCHAR apostrophe
ENCODING 39
SWIDTH 246 0
DWIDTH 4 0
BBX 3 4 0 6
BITMAP
60
60
40
80
ENDCHAR
STARTCHAR parenleft
ENCODING 40
SWIDTH 350 0
DWIDTH 5 0
BBX 5 12 0 -2
BITMAP
18
30
60
60
c0
c0
c0
c0
c0
c0
c0
60
ENDCHAR
STARTCHAR parenright
ENCODING 41
SWIDTH 350 0
DWIDTH 5 0
BBX 5 12 -1 -2
BITMAP
30
18
18
18
18
18
18
18
30
30
60
c0
ENDCHAR
STARTCHAR asterisk
ENCODING 42
SWIDTH 500 0
DWIDTH 7 0
BBX 6 6 1 4
BITMAP
10
54
38
70
a8
20
ENDCHAR
STARTCHAR plus
ENCODING 43
SWIDTH 600 0
DWIDTH 9 0
BBX 8 7 0 0
BITMAP
18
18
18
ff
18
18
18
ENDCHAR
STARTCHAR comma
ENCODING 44
SWIDTH 280 0
DWIDTH 4 0
BBX 3 4 -1 -2
BITMAP
60
60
40
80
ENDCHAR
STARTCHAR minus
ENCODING 45
SWIDTH 600 0
DWIDTH 9 0
BBX 8 1 0 3
BITMAP
ff
ENDCHAR
STARTCHAR period
ENCODING 46
SWIDTH 280 0
DWIDTH 4 0
BBX 2 2 0 0
BITMAP
c0
c0
ENDCHAR
STARTCHAR slash
ENCODING 47
SWIDTH 260 0
DWIDTH 6 0
BBX 4 10 1 0
BITMAP
30
30
30
60
60
60
60
c0
c0
c0
ENDCHAR
STARTCHAR zero
ENCODING 48
SWIDTH 560 0
DWIDTH 8 0
BBX 8 10 0 0
BITMAP
1e
37
77
67
e7
e7
e6
ee
ec
78
ENDCHAR
STARTCHAR one
ENCODING 49
SWIDTH 560 0
DWIDTH 8 0
BBX 6 10 0 0
BITMAP
1c
3c
1c
38
38
38
38
70
70
f8
ENDCHAR
STARTCHAR two
ENCODING 50
SWIDTH 560 0
DWIDTH 8 0
BBX 8 10 0 0
BITMAP
3e
77
67
07
0e
38
60
c2
fe
fe
ENDCHAR
STARTCHAR three
ENCODING 51
SWIDTH 560 0
DWIDTH 8 0
BBX 8 10 0 0
BITMAP
3e
77
67
0e
3c
0e
0e
ce
ec
78
ENDCHAR
STARTCHAR four
ENCODING 52
SWIDTH 560 0
DWIDTH 8 0
BBX 8 10 0 0
BITMAP
1c
1c
38
38
76
6e
ce
ff
1c
3e
ENDCHAR
STARTCHAR five
ENCODING 53
SWIDTH 560 0
DWIDTH 8 0
BBX 8 10 0 0
BITMAP
3f
3e
20
40
7c
0e
0e
ce
ec
78
ENDCHAR
STARTCHAR six
ENCODING 54
SWIDTH 560 0
DWIDTH 8 0
BBX 8 10 0 0
BITMAP
1e
37
73
60
fc
ee
e6
e6
ec
78
ENDCHAR
STARTCHAR seven
ENCODING 55
SWIDTH 560 0
DWIDTH 8 0
BBX 7 10 1 0
BITMAP
fe
fe
8c
18
18
38
38
70
70
70
ENDCHAR
STARTCHAR eight
ENCODING 56
SWIDTH 560 0
DWIDTH 8 0
BBX 8 10 0 0
BITMAP
1e
33
73
77
3e
7c
ee
ce
cc
78
ENDCHAR
STARTCHAR nine
ENCODING 57
SWIDTH 560 0
DWIDTH 8 0
BBX 8 10 0 0
BITMAP
1e
37
67
67
77
3f
06
ce
ec
78
ENDCHAR
STARTCHAR colon
ENCODING 58
SWIDTH 280 0
DWIDTH 4 0
BBX 3 7 0 0
BITMAP
60
60
00
00
00
c0
c0
ENDCHAR
STARTCHAR semicolon
ENCODING 59
SWIDTH 280 0
DWIDTH 4 0
BBX 4 9 -1 -2
BITMAP
30
30
00
00
00
60
60
40
80
ENDCHAR
STARTCHAR less
ENCODING 60
SWIDTH 600 0
DWIDTH 9 0
BBX 7 7 1 0
BITMAP
06
1e
78
e0
78
1e
06
ENDCHAR
STARTCHAR equal
ENCODING 61
SWIDTH 600 0
DWIDTH 9 0
BBX 8 4 0 2
BITMAP
ff
00
00
ff
ENDCHAR
STARTCHAR greater
ENCODING 62
SWIDTH 600 0
DWIDTH 9 0
BBX 7 7 1 0
BITMAP
c0
f0
3c
0e
3c
f0
c0
ENDCHAR
STARTCHAR question
ENCODING 63
SWIDTH 454 0
DWIDTH 7 0
BBX 6 10 1 0
BITMAP
78
dc
9c
38
70
60
00
00
c0
c0
ENDCHAR
STARTCHAR at
ENCODING 64
SWIDTH 828 0
DWIDTH 13 0
BBX 12 10 0 0
BITMAP
1fc0
3060
63b0
cdb0
d9b0
db30
db60
cdc0
6000
3f80
ENDCHAR
STARTCHAR A
ENCODING 65
SWIDTH 634 0
DWIDTH 9 0
BBX 10 10 -2 0
BITMAP
0300
0700
0700
0b00
1300
1380
3f80
4380
4380
e7c0
ENDCHAR
STARTCHAR B
ENCODING 66
SWIDTH 680 0
DWIDTH 10 0
BBX 11 10 -1 0
BITMAP
3fc0
1ce0
1ce0
39c0
3f80
39c0
39c0
71c0
7380
ff00
ENDCHAR
STARTCHAR C
ENCODING 67
SWIDTH 672 0
DWIDTH 10 0
BBX 9 10 0 0
BITMAP
0f80
3980
7080
7000
e000
e000
e000
e100
6300
3e00
ENDCHAR
STARTCHAR D
ENCODING 68
SWIDTH 774 0
DWIDTH 12 0
BBX 12 10 -1 0
BITMAP
3fc0
1c60
1c70
3870
3870
3870
38e0
70e0
71c0
ff00
ENDCHAR
STARTCHAR E
ENCODING 69
SWIDTH 622 0
DWIDTH 9 0
BBX 10 10 -1 0
BITMAP
3fc0
1cc0
1c40
3900
3f00
3900
3800
7080
7180
ff80
ENDCHAR
STARTCHAR F
ENCODING 70
SWIDTH 585 0
DWIDTH 9 0
BBX 10 10 -1 0
BITMAP
3fc0
1cc0
1c40
3900
3f00
3900
3800
7000
7000
f800
ENDCHAR
STARTCHAR G
ENCODING 71
SWIDTH 726 0
DWIDTH 10 0
BBX 10 10 0 0
BITMAP
0f80
3980
7080
7000
e000
e7c0
e380
e380
6780
3e00
ENDCHAR
STARTCHAR H
ENCODING 72
SWIDTH 800 0
DWIDTH 12 0
BBX 13 10 -1 0
BITMAP
3ef8
1c70
1c70
38e0
3fe0
38e0
38e0
71c0
71c0
fbe0
ENDCHAR
STARTCHAR I
ENCODING 73
SWIDTH 386 0
DWIDTH 6 0
BBX 7 10 -1 0
BITMAP
3e
1c
1c
38
38
38
38
70
70
f8
ENDCHAR
STARTCHAR J
ENCODING 74
SWIDTH 388 0
DWIDTH 6 0
BBX 8 12 -2 -2
BITMAP
1f
0e
0e
1c
1c
1c
1c
38
38
38
30
e0
ENDCHAR
STARTCHAR K
ENCODING 75
SWIDTH 688 0
DWIDTH 12 0
BBX 12 10 0 0
BITMAP
3ef0
1c60
1c80
3900
3b00
3f00
3b80
7380
71c0
f9e0
ENDCHAR
STARTCHAR L
ENCODING 76
SWIDTH 586 0
DWIDTH 9 0
BBX 9 10 -1 0
BITMAP
3e00
1c00
1c00
3800
3800
3800
3800
7080
7180
ff80
ENDCHAR
STARTCHAR M
ENCODING 77
SWIDTH 921 0
DWIDTH 14 0
BBX 15 10 -1 0
BITMAP
3c1e
1c3c
1c5c
2e78
2eb8
2f38
2f38
4670
4670
e4f8
ENDCHAR
STARTCHAR N
ENCODING 78
SWIDTH 741 0
DWIDTH 11 0
BBX 12 10 -1 0
BITMAP
3c70
1c20
1e20
3e40
2f40
27c0
27c0
4380
4380
e180
ENDCHAR
STARTCHAR O
ENCODING 79
SWIDTH 761 0
DWIDTH 12 0
BBX 11 10 0 0
BITMAP
0f80
38c0
70e0
70e0
f0e0
e1e0
e1c0
e1c0
6380
3e00
ENDCHAR
STARTCHAR P
ENCODING 80
SWIDTH 660 0
DWIDTH 10 0
BBX 11 10 -1 0
BITMAP
3fc0
1ce0
1ce0
38e0
39c0
3f80
3800
7000
7000
f800
ENDCHAR
STARTCHAR Q
ENCODING 81
SWIDTH 761 0
DWIDTH 12 0
BBX 11 13 0 -3
BITMAP
0f80
38c0
70e0
70e0
f0e0
e1e0
e1c0
e1c0
6380
3e00
0e00
0700
0380
ENDCHAR
STARTCHAR R
ENCODING 82
SWIDTH 681 0
DWIDTH 10 0
BBX 11 10 -1 0
BITMAP
3fc0
1ce0
1ce0
39c0
3f80
3b80
3b80
71c0
71c0
f9e0
ENDCHAR
STARTCHAR S
ENCODING 83
SWIDTH 551 0
DWIDTH 8 0
BBX 9 10 -1 0
BITMAP
0f80
1980
3100
3800
3c00
1e00
0e00
4600
cc00
f800
ENDCHAR
STARTCHAR T
ENCODING 84
SWIDTH 616 0
DWIDTH 9 0
BBX 9 10 0 0
BITMAP
ff80
dd80
9c80
3800
3800
3800
3800
7000
7000
f800
ENDCHAR
STARTCHAR U
ENCODING 85
SWIDTH 776 0
DWIDTH 12 0
BBX 12 10 0 0
BITMAP
7df0
38e0
38e0
71c0
71c0
71c0
e380
e380
e380
7f00
ENDCHAR
STARTCHAR V
ENCODING 86
SWIDTH 630 0
DWIDTH 9 0
BBX 10 10 0 0
BITMAP
f9c0
7080
7080
7100
7200
3a00
3c00
3800
3800
3000
ENDCHAR
STARTCHAR W
ENCODING 87
SWIDTH 920 0
DWIDTH 14 0
BBX 15 10 0 0
BITMAP
f9ce
71c4
71c4
73c8
73c8
34d0
34d0
38e0
38e0
30c0
ENDCHAR
STARTCHAR X
ENCODING 88
SWIDTH 630 0
DWIDTH 10 0
BBX 11 10 -1 0
BITMAP
3ee0
1c40
1c80
0f00
0e00
0e00
1e00
2700
4700
ef80
ENDCHAR
STARTCHAR Y
ENCODING 89
SWIDTH 622 0
DWIDTH 9 0
BBX 9 10 1 0
BITMAP
fb80
7100
7200
7400
3800
3800
3800
7000
7000
f800
ENDCHAR
STARTCHAR Z
ENCODING 90
SWIDTH 618 0
DWIDTH 9 0
BBX 10 10 -1 0
BITMAP
3fc0
3380
2700
0700
0e00
1c00
3800
3900
7300
ff00
ENDCHAR
STARTCHAR bracketleft
ENCODING 91
SWIDTH 350 0
DWIDTH 5 0
BBX 5 12 0 -2
BITMAP
38
30
30
30
60
60
60
60
c0
c0
c0
e0
ENDCHAR
STARTCHAR backslash
ENCODING 92
SWIDTH 460 0
DWIDTH 6 0
BBX 4 10 1 0
BITMAP
c0
c0
c0
60
60
60
60
30
30
30
ENDCHAR
STARTCHAR bracketright
ENCODING 93
SWIDTH 350 0
DWIDTH 5 0
BBX 5 12 -1 -2
BITMAP
38
18
18
18
30
30
30
30
60
60
60
e0
ENDCHAR
STARTCHAR asciicircum
ENCODING 94
SWIDTH 600 0
DWIDTH 9 0
BBX 7 7 1 3
BITMAP
10
38
38
6c
6c
c6
c6
ENDCHAR
STARTCHAR underscore
ENCODING 95
SWIDTH 500 0
DWIDTH 7 0
BBX 7 1 0 -2
BITMAP
fe
ENDCHAR
STARTCHAR grave
ENCODING 96
SWIDTH 400 0
DWIDTH 6 0
BBX 3 2 1 8
BITMAP
c0
60
ENDCHAR
STARTCHAR a
ENCODING 97
SWIDTH 596 0
DWIDTH 9 0
BBX 9 7 0 0
BITMAP
3f00
7700
6700
ee00
ee00
fe80
6700
ENDCHAR
STARTCHAR b
ENCODING 98
SWIDTH 586 0
DWIDTH 9 0
BBX 8 11 0 0
BITMAP
78
38
38
70
76
7f
77
e7
e6
ee
fc
ENDCHAR
STARTCHAR c
ENCODING 99
SWIDTH 456 0
DWIDTH 7 0
BBX 6 7 0 0
BITMAP
3c
74
60
e0
e4
e8
70
ENDCHAR
STARTCHAR d
ENCODING 100
SWIDTH 609 0
DWIDTH 9 0
BBX 9 11 0 0
BITMAP
0780
0380
0380
0380
3f00
7700
6700
e700
ee00
fe80
6700
ENDCHAR
STARTCHAR e
ENCODING 101
SWIDTH 476 0
DWIDTH 7 0
BBX 6 7 0 0
BITMAP
3c
74
68
f0
e4
e8
70
ENDCHAR
STARTCHAR f
ENCODING 102
SWIDTH 348 0
DWIDTH 5 0
BBX 9 14 -2 -3
BITMAP
0380
0680
0e00
0e00
3f00
1c00
1c00
1c00
3800
3800
3800
3800
b000
e000
ENDCHAR
STARTCHAR g
ENCODING 103
SWIDTH 522 0
DWIDTH 8 0
BBX 9 10 -1 -3
BITMAP
1f80
3700
7700
7600
3c00
3800
3e00
4f00
c700
7e00
ENDCHAR
STARTCHAR h
ENCODING 104
SWIDTH 629 0
DWIDTH 9 0
BBX 9 11 0 0
BITMAP
7800
3800
3800
3800
7600
7f00
7700
6700
ee00
ee80
e700
ENDCHAR
STARTCHAR i
ENCODING 105
SWIDTH 339 0
DWIDTH 5 0
BBX 5 10 0 0
BITMAP
38
38
00
f0
70
70
e0
e0
e8
70
ENDCHAR
STARTCHAR j
ENCODING 106
SWIDTH 333 0
DWIDTH 5 0
BBX 7 13 -2 -3
BITMAP
0e
0e
00
3c
1c
1c
1c
38
38
38
38
b8
f0
ENDCHAR
STARTCHAR k
ENCODING 107
SWIDTH 570 0
DWIDTH 8 0
BBX 9 11 0 0
BITMAP
7800
3800
3800
7000
7300
7700
7c00
ec00
ee00
e780
e700
ENDCHAR
STARTCHAR l
ENCODING 108
SWIDTH 327 0
DWIDTH 5 0
BBX 5 11 0 0
BITMAP
78
38
38
70
70
70
70
e0
e0
e8
70
ENDCHAR
STARTCHAR m
ENCODING 109
SWIDTH 914 0
DWIDTH 13 0
BBX 13 7 0 0
BITMAP
f660
7ff0
7770
7770
eee0
eee8
ee70
ENDCHAR
STARTCHAR n
ENCODING 110
SWIDTH 635 0
DWIDTH 9 0
BBX 9 7 0 0
BITMAP
f600
7f00
7700
7700
ee00
ee80
e700
ENDCHAR
STARTCHAR o
ENCODING 111
SWIDTH 562 0
DWIDTH 8 0
BBX 8 7 0 0
BITMAP
3e
77
67
e7
e6
ee
7c
ENDCHAR
STARTCHAR p
ENCODING 112
SWIDTH 606 0
DWIDTH 9 0
BBX 9 10 -1 -3
BITMAP
7b00
3f80
3b80
7380
7300
7700
7e00
e000
e000
e000
ENDCHAR
STARTCHAR q
ENCODING 113
SWIDTH 584 0
DWIDTH 9 0
BBX 8 10 0 -3
BITMAP
3f
77
67
ee
ee
fe
6e
1c
1c
1c
ENDCHAR
STARTCHAR r
ENCODING 114
SWIDTH 440 0
DWIDTH 6 0
BBX 6 7 0 0
BITMAP
ec
7c
70
70
e0
e0
e0
ENDCHAR
STARTCHAR s
ENCODING 115
SWIDTH 417 0
DWIDTH 6 0
BBX 7 7 -1 0
BITMAP
1c
36
78
3c
1c
d8
70
ENDCHAR
STARTCHAR t
ENCODING 116
SWIDTH 359 0
DWIDTH 5 0
BBX 5 9 0 0
BITMAP
30
70
f8
70
70
e0
e0
e8
70
ENDCHAR
STARTCHAR u
ENCODING 117
SWIDTH 634 0
DWIDTH 9 0
BBX 9 7 0 0
BITMAP
f700
7700
7700
ee00
ee00
fe80
6700
ENDCHAR
STARTCHAR v
ENCODING 118
SWIDTH 518 0
DWIDTH 8 0
BBX 8 7 0 0
BITMAP
f3
73
72
e6
e4
e8
70
ENDCHAR
STARTCHAR w
ENCODING 119
SWIDTH 795 0
DWIDTH 12 0
BBX 12 7 0 0
BITMAP
f330
7330
7730
e760
e640
ee80
7300
ENDCHAR
STARTCHAR x
ENCODING 120
SWIDTH 516 0
DWIDTH 8 0
BBX 9 7 -1 0
BITMAP
7980
3a80
3a00
1c00
2e00
ae00
cf00
ENDCHAR
STARTCHAR y
ENCODING 121
SWIDTH 489 0
DWIDTH 7 0
BBX 8 10 -1 -3
BITMAP
7b
3b
3a
3a
3c
18
18
10
e0
c0
ENDCHAR
STARTCHAR z
ENCODING 122
SWIDTH 466 0
DWIDTH 7 0
BBX 6 7 0 0
BITMAP
7c
fc
98
30
64
fc
b8
ENDCHAR
STARTCHAR braceleft
ENCODING 123
SWIDTH 340 0
DWIDTH 5 0
BBX 5 12 0 -2
BITMAP
18
30
30
30
60
c0
60
60
c0
c0
c0
60
ENDCHAR
STARTCHAR bar
ENCODING 124
SWIDTH 265 0
DWIDTH 4 0
BBX 2 10 1 0
BITMAP
c0
c0
c0
c0
c0
c0
c0
c0
c0
c0
ENDCHAR
STARTCHAR braceright
ENCODING 125
SWIDTH 340 0
DWIDTH 5 0
BBX 5 12 -1 -2
BITMAP
30
18
18
30
30
18
30
60
60
60
60
c0
ENDCHAR
STARTCHAR asciitilde
ENCODING 126
SWIDTH 600 0
DWIDTH 9 0
BBX 8 2 0 3
BITMAP
79
9e
ENDCHAR
STARTCHAR nobreakspace
ENCODING 160
SWIDTH 210 0
DWIDTH 3 0
BBX 0 0 0 0
BITMAP
ENDCHAR
STARTCHAR Aogonek
ENCODING 161
SWIDTH 634 0
DWIDTH 9 0
BBX 10 13 -2 -3
BITMAP
0300
0700
0700
0b00
1300
1380
3f80
4380
4380
e7c0
0400
0800
0c00
ENDCHAR
STARTCHAR breve
ENCODING 162
SWIDTH 400 0
DWIDTH 6 0
BBX 5 2 1 8
BITMAP
88
70
ENDCHAR
STARTCHAR Lstroke
ENCODING 163
SWIDTH 592 0
DWIDTH 9 0
BBX 9 10 -1 0
BITMAP
3e00
1c00
1c00
3800
7e00
3800
3800
7080
7180
ff80
ENDCHAR
STARTCHAR currency
ENCODING 164
SWIDTH 560 0
DWIDTH 8 0
BBX 7 9 0 1
BITMAP
82
fe
6c
c6
c6
c6
6c
fe
82
ENDCHAR
STARTCHAR Lcaron
ENCODING 165
SWIDTH 754 0
DWIDTH 11 0
BBX 11 11 -1 0
BITMAP
0060
3e60
1c40
1c80
3800
3800
3800
3800
7080
7180
ff80
ENDCHAR
STARTCHAR Sacute
ENCODING 166
SWIDTH 551 0
DWIDTH 8 0
BBX 9 13 -1 0
BITMAP
0180
0300
0000
0f80
1980
3100
3800
3c00
1e00
0e00
4600
cc00
f800
ENDCHAR
STARTCHAR section
ENCODING 167
SWIDTH 568 0
DWIDTH 8 0
BBX 7 12 0 -2
BITMAP
1e
32
30
38
5c
ce
e6
74
38
18
98
f0
ENDCHAR
STARTCHAR diaeresis
ENCODING 168
SWIDTH 400 0
DWIDTH 6 0
BBX 5 2 1 8
BITMAP
d8
d8
ENDCHAR
STARTCHAR Scaron
ENCODING 169
SWIDTH 551 0
DWIDTH 8 0
BBX 9 13 -1 0
BITMAP
0680
0300
0000
0f80
1980
3100
3800
3c00
1e00
0e00
4600
cc00
f800
ENDCHAR
STARTCHAR Scedilla
ENCODING 170
SWIDTH 551 0
DWIDTH 8 0
BBX 9 13 -1 -3
BITMAP
0f80
1980
3100
3800
3c00
1e00
0e00
4600
cc00
f800
0800
0400
1c00
ENDCHAR
STARTCHAR Tcaron
ENCODING 171
SWIDTH 616 0
DWIDTH 9 0
BBX 9 13 0 0
BITMAP
1a00
0c00
0000
ff80
dd80
9c80
3800
3800
3800
3800
7000
7000
f800
ENDCHAR
STARTCHAR Zacute
ENCODING 172
SWIDTH 618 0
DWIDTH 9 0
BBX 10 13 -1 0
BITMAP
0180
0300
0000
3fc0
3380
2700
0700
0e00
1c00
3800
3900
7300
ff00
ENDCHAR
STARTCHAR hyphen
ENCODING 173
SWIDTH 392 0
DWIDTH 6 0
BBX 4 1 1 3
BITMAP
f0
ENDCHAR
STARTCHAR Zcaron
ENCODING 174
SWIDTH 618 0
DWIDTH 9 0
BBX 10 13 -1 0
BITMAP
0680
0300
0000
3fc0
3380
2700
0700
0e00
1c00
3800
3900
7300
ff00
ENDCHAR
STARTCHAR Zabovedot
ENCODING 175
SWIDTH 618 0
DWIDTH 9 0
BBX 10 13 -1 0
BITMAP
0300
0300
0000
3fc0
3380
2700
0700
0e00
1c00
3800
3900
7300
ff00
ENDCHAR
STARTCHAR degree
ENCODING 176
SWIDTH 375 0
DWIDTH 6 0
BBX 4 4 1 6
BITMAP
60
90
90
60
ENDCHAR
STARTCHAR aogonek
ENCODING 177
SWIDTH 596 0
DWIDTH 9 0
BBX 9 10 0 -3
BITMAP
3f00
7700
6700
ee00
ee00
fe80
6700
0400
0800
0c00
ENDCHAR
STARTCHAR ogonek
ENCODING 178
SWIDTH 350 0
DWIDTH 5 0
BBX 2 3 1 -3
BITMAP
40
80
c0
ENDCHAR
STARTCHAR lstroke
ENCODING 179
SWIDTH 339 0
DWIDTH 5 0
BBX 5 11 0 0
BITMAP
78
38
38
70
78
f0
70
e0
e0
e8
70
ENDCHAR
STARTCHAR acute
ENCODING 180
SWIDTH 400 0
DWIDTH 6 0
BBX 3 2 1 8
BITMAP
60
c0
ENDCHAR
STARTCHAR lcaron
ENCODING 181
SWIDTH 617 0
DWIDTH 9 0
BBX 9 12 0 0
BITMAP
0180
7980
3900
3a00
7000
7000
7000
7000
e000
e000
e800
7000
ENDCHAR
STARTCHAR sacute
ENCODING 182
SWIDTH 417 0
DWIDTH 6 0
BBX 7 10 -1 0
BITMAP
06
0c
00
1c
36
78
3c
1c
d8
70
ENDCHAR
STARTCHAR caron
ENCODING 183
SWIDTH 400 0
DWIDTH 6 0
BBX 4 2 1 8
BITMAP
d0
60
ENDCHAR
STARTCHAR cedilla
ENCODING 184
SWIDTH 400 0
DWIDTH 5 0
BBX 3 3 1 -3
BITMAP
40
20
e0
ENDCHAR
STARTCHAR scaron
ENCODING 185
SWIDTH 417 0
DWIDTH 6 0
BBX 7 10 -1 0
BITMAP
1a
0c
00
1c
36
78
3c
1c
d8
70
ENDCHAR
STARTCHAR scedilla
ENCODING 186
SWIDTH 417 0
DWIDTH 6 0
BBX 7 10 -1 -3
BITMAP
1c
36
78
3c
1c
d8
70
10
08
38
ENDCHAR
STARTCHAR tcaron
ENCODING 187
SWIDTH 548 0
DWIDTH 8 0
BBX 8 12 0 0
BITMAP
03
03
02
34
70
f8
70
70
e0
e0
e8
70
ENDCHAR
STARTCHAR zacute
ENCODING 188
SWIDTH 466 0
DWIDTH 7 0
BBX 6 10 0 0
BITMAP
18
30
00
7c
fc
98
30
64
fc
b8
ENDCHAR
STARTCHAR doubleacute
ENCODING 189
SWIDTH 400 0
DWIDTH 6 0
BBX 6 2 0 8
BITMAP
6c
d8
ENDCHAR
STARTCHAR zcaron
ENCODING 190
SWIDTH 466 0
DWIDTH 7 0
BBX 6 10 0 0
BITMAP
68
30
00
7c
fc
98
30
64
fc
b8
ENDCHAR
STARTCHAR zabovedot
ENCODING 191
SWIDTH 466 0
DWIDTH 7 0
BBX 6 10 0 0
BITMAP
30
30
00
7c
fc
98
30
64
fc
b8
ENDCHAR
STARTCHAR Racute
ENCODING 192
SWIDTH 681 0
DWIDTH 10 0
BBX 11 13 -1 0
BITMAP
0180
0300
0000
3fc0
1ce0
1ce0
39c0
3f80
3b80
3b80
71c0
71c0
f9e0
ENDCHAR
STARTCHAR Aacute
ENCODING 193
SWIDTH 634 0
DWIDTH 9 0
BBX 10 12 -2 0
BITMAP
0180
0300
0000
0300
0700
0b00
0b00
1380
3f80
2380
4380
e7c0
ENDCHAR
STARTCHAR Acircumflex
ENCODING 194
SWIDTH 634 0
DWIDTH 9 0
BBX 10 12 -2 0
BITMAP
0300
0580
0000
0300
0700
0b00
0b00
1380
3f80
2380
4380
e7c0
ENDCHAR
STARTCHAR Abreve
ENCODING 195
SWIDTH 634 0
DWIDTH 9 0
BBX 10 13 -2 0
BITMAP
0880
0700
0000
0300
0700
0700
0b00
1300
1380
3f80
4380
4380
e7c0
ENDCHAR
STARTCHAR Adiaeresis
ENCODING 196
SWIDTH 634 0
DWIDTH 9 0
BBX 10 12 -2 0
BITMAP
06c0
06c0
0000
0300
0700
0b00
0b00
1380
3f80
2380
4380
e7c0
ENDCHAR
STARTCHAR Lacute
ENCODING 197
SWIDTH 586 0
DWIDTH 9 0
BBX 9 13 -1 0
BITMAP
0600
0c00
0000
3e00
1c00
1c00
3800
3800
3800
3800
7080
7180
ff80
ENDCHAR
STARTCHAR Cacute
ENCODING 198
SWIDTH 672 0
DWIDTH 10 0
BBX 9 13 0 0
BITMAP
0300
0600
0000
0f80
3980
7080
7000
e000
e000
e000
e100
6300
3e00
ENDCHAR
STARTCHAR Ccedilla
ENCODING 199
SWIDTH 672 0
DWIDTH 10 0
BBX 9 13 0 -3
BITMAP
0f80
3980
7080
7000
e000
e000
e000
e100
6300
3e00
1000
0800
3800
ENDCHAR
STARTCHAR Ccaron
ENCODING 200
SWIDTH 672 0
DWIDTH 10 0
BBX 9 13 0 0
BITMAP
0d00
0600
0000
0f80
3980
7080
7000
e000
e000
e000
e100
6300
3e00
ENDCHAR
STARTCHAR Eacute
ENCODING 201
SWIDTH 622 0
DWIDTH 9 0
BBX 10 12 -1 0
BITMAP
0180
0300
0000
3fc0
1cc0
1c40
3900
3f00
3900
7080
7180
ff80
ENDCHAR
STARTCHAR Eogonek
ENCODING 202
SWIDTH 622 0
DWIDTH 9 0
BBX 10 13 -1 -3
BITMAP
3fc0
1cc0
1c40
3900
3f00
3900
3800
7080
7180
ff80
0400
0800
0c00
ENDCHAR
STARTCHAR Ediaeresis
ENCODING 203
SWIDTH 622 0
DWIDTH 9 0
BBX 10 12 -1 0
BITMAP
0d80
0d80
0000
3fc0
1cc0
1c40
3900
3f00
3900
7080
7180
ff80
ENDCHAR
STARTCHAR Ecaron
ENCODING 204
SWIDTH 622 0
DWIDTH 9 0
BBX 10 13 -1 0
BITMAP
0680
0300
0000
3fc0
1cc0
1c40
3900
3f00
3900
3800
7080
7180
ff80
ENDCHAR
STARTCHAR Iacute
ENCODING 205
SWIDTH 386 0
DWIDTH 6 0
BBX 7 12 -1 0
BITMAP
06
0c
00
3e
1c
1c
38
38
38
70
70
f8
ENDCHAR
STARTCHAR Icircumflex
ENCODING 206
SWIDTH 386 0
DWIDTH 6 0
BBX 7 12 -1 0
BITMAP
0c
16
00
3e
1c
1c
38
38
38
70
70
f8
ENDCHAR
STARTCHAR Dcaron
ENCODING 207
SWIDTH 774 0
DWIDTH 12 0
BBX 12 13 -1 0
BITMAP
0680
0300
0000
3fc0
1c60
1c70
3870
3870
3870
38e0
70e0
71c0
ff00
ENDCHAR
STARTCHAR Dstroke
ENCODING 208
SWIDTH 780 0
DWIDTH 12 0
BBX 12 10 -1 0
BITMAP
3fc0
1c60
1c70
3870
7e70
3870
38e0
70e0
71c0
ff00
ENDCHAR
STARTCHAR Nacute
ENCODING 209
SWIDTH 741 0
DWIDTH 11 0
BBX 12 13 -1 0
BITMAP
00c0
0180
0000
3c70
1c20
1e20
3e40
2f40
27c0
27c0
4380
4380
e180
ENDCHAR
STARTCHAR Ncaron
ENCODING 210
SWIDTH 741 0
DWIDTH 11 0
BBX 12 13 -1 0
BITMAP
0340
0180
0000
3c70
1c20
1e20
3e40
2f40
27c0
27c0
4380
4380
e180
ENDCHAR
STARTCHAR Oacute
ENCODING 211
SWIDTH 761 0
DWIDTH 12 0
BBX 11 12 0 0
BITMAP
0180
0300
0000
0f80
38c0
70e0
70e0
f1e0
e1c0
e1c0
6380
3e00
ENDCHAR
STARTCHAR Ocircumflex
ENCODING 212
SWIDTH 761 0
DWIDTH 12 0
BBX 11 12 0 0
BITMAP
0300
0580
0000
0f80
38c0
70e0
70e0
f1e0
e1c0
e1c0
6380
3e00
ENDCHAR
STARTCHAR Odoubleacute
ENCODING 213
SWIDTH 761 0
DWIDTH 12 0
BBX 11 13 0 0
BITMAP
06c0
0d80
0000
0f80
38c0
70e0
70e0
f0e0
e1e0
e1c0
e1c0
6380
3e00
ENDCHAR
STARTCHAR Odiaeresis
ENCODING 214
SWIDTH 761 0
DWIDTH 12 0
BBX 11 12 0 0
BITMAP
0d80
0d80
0000
0f80
38c0
70e0
70e0
f1e0
e1c0
e1c0
6380
3e00
ENDCHAR
STARTCHAR multiply
ENCODING 215
SWIDTH 600 0
DWIDTH 9 0
BBX 8 7 0 0
BITMAP
c3
66
3c
18
3c
66
c3
ENDCHAR
STARTCHAR Rcaron
ENCODING 216
SWIDTH 681 0
DWIDTH 10 0
BBX 11 13 -1 0
BITMAP
0680
0300
0000
3fc0
1ce0
1ce0
39c0
3f80
3b80
3b80
71c0
71c0
f9e0
ENDCHAR
STARTCHAR Uring
ENCODING 217
SWIDTH 776 0
DWIDTH 12 0
BBX 12 14 0 0
BITMAP
0300
0480
0300
0000
7df0
38e0
38e0
71c0
71c0
71c0
e380
e380
e380
7f00
ENDCHAR
STARTCHAR Uacute
ENCODING 218
SWIDTH 776 0
DWIDTH 12 0
BBX 12 12 0 0
BITMAP
0180
0300
0000
7df0
38e0
38e0
71c0
71c0
71c0
e380
e380
7f00
ENDCHAR
STARTCHAR Udoubleacute
ENCODING 219
SWIDTH 776 0
DWIDTH 12 0
BBX 12 13 0 0
BITMAP
06c0
0d80
0000
7df0
38e0
38e0
71c0
71c0
71c0
e380
e380
e380
7f00
ENDCHAR
STARTCHAR Udiaeresis
ENCODING 220
SWIDTH 776 0
DWIDTH 12 0
BBX 12 12 0 0
BITMAP
06c0
06c0
0000
7df0
38e0
38e0
71c0
71c0
71c0
e380
e380
7f00
ENDCHAR
STARTCHAR Yacute
ENCODING 221
SWIDTH 622 0
DWIDTH 9 0
BBX 9 12 1 0
BITMAP
0600
0c00
0000
fb80
7100
7200
7400
3800
3800
7000
7000
f800
ENDCHAR
STARTCHAR Tcedilla
ENCODING 222
SWIDTH 616 0
DWIDTH 9 0
BBX 9 13 0 -3
BITMAP
ff80
dd80
9c80
3800
3800
3800
3800
7000
7000
f800
0800
0400
1c00
ENDCHAR
STARTCHAR ssharp
ENCODING 223
SWIDTH 628 0
DWIDTH 9 0
BBX 11 14 -2 -3
BITMAP
03c0
0660
0e60
0e60
3cc0
1d80
1dc0
1ce0
38e0
3ae0
3bc0
3800
b000
e000
ENDCHAR
STARTCHAR racute
ENCODING 224
SWIDTH 440 0
DWIDTH 6 0
BBX 6 10 0 0
BITMAP
18
30
00
ec
7c
70
70
e0
e0
e0
ENDCHAR
STARTCHAR aacute
ENCODING 225
SWIDTH 596 0
DWIDTH 9 0
BBX 9 10 0 0
BITMAP
0600
0c00
0000
3f00
7700
6700
ee00
ee00
fe80
6700
ENDCHAR
STARTCHAR acircumflex
ENCODING 226
SWIDTH 596 0
DWIDTH 9 0
BBX 9 10 0 0
BITMAP
0c00
1600
0000
3f00
7700
6700
ee00
ee00
fe80
6700
ENDCHAR
STARTCHAR abreve
ENCODING 227
SWIDTH 596 0
DWIDTH 9 0
BBX 9 10 0 0
BITMAP
2200
1c00
0000
3f00
7700
6700
ee00
ee00
fe80
6700
ENDCHAR
STARTCHAR adiaeresis
ENCODING 228
SWIDTH 596 0
DWIDTH 9 0
BBX 9 10 0 0
BITMAP
1b00
1b00
0000
3f00
7700
6700
ee00
ee00
fe80
6700
ENDCHAR
STARTCHAR lacute
ENCODING 229
SWIDTH 327 0
DWIDTH 5 0
BBX 6 14 0 0
BITMAP
0c
18
00
78
38
38
70
70
70
70
e0
e0
e8
70
ENDCHAR
STARTCHAR cacute
ENCODING 230
SWIDTH 456 0
DWIDTH 7 0
BBX 6 10 0 0
BITMAP
0c
18
00
3c
74
60
e0
e4
e8
70
ENDCHAR
STARTCHAR ccedilla
ENCODING 231
SWIDTH 456 0
DWIDTH 7 0
BBX 6 10 0 -3
BITMAP
3c
74
60
e0
e4
e8
70
40
20
e0
ENDCHAR
STARTCHAR ccaron
ENCODING 232
SWIDTH 456 0
DWIDTH 7 0
BBX 6 10 0 0
BITMAP
34
18
00
3c
74
60
e0
e4
e8
70
ENDCHAR
STARTCHAR eacute
ENCODING 233
SWIDTH 476 0
DWIDTH 7 0
BBX 6 10 0 0
BITMAP
0c
18
00
3c
74
68
f0
e4
e8
70
ENDCHAR
STARTCHAR eogonek
ENCODING 234
SWIDTH 476 0
DWIDTH 7 0
BBX 6 10 0 -3
BITMAP
3c
74
68
f0
e4
e8
70
10
20
30
ENDCHAR
STARTCHAR ediaeresis
ENCODING 235
SWIDTH 476 0
DWIDTH 7 0
BBX 7 10 0 0
BITMAP
36
36
00
3c
74
68
f0
e4
e8
70
ENDCHAR
STARTCHAR ecaron
ENCODING 236
SWIDTH 476 0
DWIDTH 7 0
BBX 6 10 0 0
BITMAP
34
18
00
3c
74
68
f0
e4
e8
70
ENDCHAR
STARTCHAR iacute
ENCODING 237
SWIDTH 339 0
DWIDTH 5 0
BBX 5 10 0 0
BITMAP
18
30
00
f0
70
70
e0
e0
e8
70
ENDCHAR
STARTCHAR icircumflex
ENCODING 238
SWIDTH 339 0
DWIDTH 5 0
BBX 5 10 0 0
BITMAP
30
58
00
f0
70
70
e0
e0
e8
70
ENDCHAR
STARTCHAR dcaron
ENCODING 239
SWIDTH 891 0
DWIDTH 13 0
BBX 13 12 0 0
BITMAP
0018
0798
0390
03a0
0380
3f00
7700
6700
e700
ee00
fe80
6700
ENDCHAR
STARTCHAR dstroke
ENCODING 240
SWIDTH 822 0
DWIDTH 12 0
BBX 12 11 0 0
BITMAP
0780
0380
1ff0
0380
3f00
7700
6700
e700
ee00
fe80
6700
ENDCHAR
STARTCHAR nacute
ENCODING 241
SWIDTH 635 0
DWIDTH 9 0
BBX 9 10 0 0
BITMAP
0c00
1800
0000
f600
7f00
7700
7700
ee00
ee80
e700
ENDCHAR
STARTCHAR ncaron
ENCODING 242
SWIDTH 635 0
DWIDTH 9 0
BBX 9 10 0 0
BITMAP
3400
1800
0000
f600
7f00
7700
7700
ee00
ee80
e700
ENDCHAR
STARTCHAR oacute
ENCODING 243
SWIDTH 562 0
DWIDTH 8 0
BBX 8 10 0 0
BITMAP
06
0c
00
3e
77
67
e7
e6
ee
7c
ENDCHAR
STARTCHAR ocircumflex
ENCODING 244
SWIDTH 562 0
DWIDTH 8 0
BBX 8 10 0 0
BITMAP
0c
16
00
3e
77
67
e7
e6
ee
7c
ENDCHAR
STARTCHAR odoubleacute
ENCODING 245
SWIDTH 562 0
DWIDTH 8 0
BBX 8 10 0 0
BITMAP
1b
36
00
3e
77
67
e7
e6
ee
7c
ENDCHAR
STARTCHAR odiaeresis
ENCODING 246
SWIDTH 562 0
DWIDTH 8 0
BBX 8 10 0 0
BITMAP
36
36
00
3e
77
67
e7
e6
ee
7c
ENDCHAR
STARTCHAR division
ENCODING 247
SWIDTH 600 0
DWIDTH 9 0
BBX 8 7 0 0
BITMAP
18
18
00
ff
00
18
18
ENDCHAR
STARTCHAR rcaron
ENCODING 248
SWIDTH 440 0
DWIDTH 6 0
BBX 6 10 0 0
BITMAP
68
30
00
ec
7c
70
70
e0
e0
e0
ENDCHAR
STARTCHAR uring
ENCODING 249
SWIDTH 634 0
DWIDTH 9 0
BBX 9 11 0 0
BITMAP
1800
2400
1800
0000
f700
7700
7700
ee00
ee00
fe80
6700
ENDCHAR
STARTCHAR uacute
ENCODING 250
SWIDTH 634 0
DWIDTH 9 0
BBX 9 10 0 0
BITMAP
0c00
1800
0000
f700
7700
7700
ee00
ee00
fe80
6700
ENDCHAR
STARTCHAR udoubleacute
ENCODING 251
SWIDTH 634 0
DWIDTH 9 0
BBX 9 10 0 0
BITMAP
3600
6c00
0000
f700
7700
7700
ee00
ee00
fe80
6700
ENDCHAR
STARTCHAR udiaeresis
ENCODING 252
SWIDTH 634 0
DWIDTH 9 0
BBX 9 10 0 0
BITMAP
3600
3600
0000
f700
7700
7700
ee00
ee00
fe80
6700
ENDCHAR
STARTCHAR yacute
ENCODING 253
SWIDTH 489 0
DWIDTH 7 0
BBX 8 13 -1 -3
BITMAP
06
0c
00
7b
3b
3a
3a
3c
18
18
10
e0
c0
ENDCHAR
STARTCHAR tcedilla
ENCODING 254
SWIDTH 359 0
DWIDTH 5 0
BBX 5 12 0 -3
BITMAP
30
70
f8
70
70
e0
e0
e8
70
20
10
70
ENDCHAR
STARTCHAR abovedot
ENCODING 255
SWIDTH 402 0
DWIDTH 6 0
BBX 2 2 2 8
BITMAP
c0
c0
ENDCHAR
ENDFONT
